<!DOCTYPE svg PUBLIC "-//W3C//DTD SVG 1.1//EN" "http://www.w3.org/Graphics/SVG/1.1/DTD/svg11.dtd">
<svg width="64px" height="64px" viewBox="0 0 64 64" data-name="Layer 1" id="Layer_1" xmlns="http://www.w3.org/2000/svg" fill="#000000">
<g id="SVGRepo_bgCarrier" stroke-width="0"/>
<g id="SVGRepo_tracerCarrier" stroke-linecap="round" stroke-linejoin="round"/>
<g id="SVGRepo_iconCarrier">
<defs>
<style>.cls-1{fill:#ffb300;}.cls-2{fill:#0074ff;}</style>
</defs>
<title/>
<path class="cls-1" d="M54.26,39.7a2,2,0,0,1-1.39-.56l-1.74-1.68a2,2,0,0,1,2.79-2.88l1.73,1.68a2,2,0,0,1,.05,2.83A2,2,0,0,1,54.26,39.7Z"/>
<path class="cls-1" d="M32.09,43.34l-.3,0a2,2,0,0,1-1.41-1L25.07,33.6,10.63,41.68a2,2,0,0,1-2-3.49l16.13-9a2,2,0,0,1,2.69.71l5.06,8.36,11.7-10.43a2,2,0,0,1,2.72.06l2.76,2.67A2,2,0,0,1,47,33.41L45.53,32,33.42,42.83A2,2,0,0,1,32.09,43.34Z"/>
<path class="cls-1" d="M20.91,27.71a6.34,6.34,0,1,1,6.34-6.33A6.35,6.35,0,0,1,20.91,27.71Zm0-8.67a2.34,2.34,0,1,0,2.34,2.34A2.34,2.34,0,0,0,20.91,19Z"/>
<path class="cls-2" d="M54.39,56.39H21.07a2,2,0,0,1,0-4H52.39V11.61H11.61V52.39h1.87a2,2,0,1,1,0,4H9.61a2,2,0,0,1-2-2V9.61a2,2,0,0,1,2-2H54.39a2,2,0,0,1,2,2V54.39A2,2,0,0,1,54.39,56.39Z"/>
</g>
</svg>