<!DOCTYPE svg PUBLIC "-//W3C//DTD SVG 1.1//EN" "http://www.w3.org/Graphics/SVG/1.1/DTD/svg11.dtd">
<!-- Uploaded to: SVG Repo, www.svgrepo.com, Transformed by: SVG Repo Mixer Tools -->
<svg width="64px" height="64px" viewBox="0 0 20.00 20.00" xmlns="http://www.w3.org/2000/svg" fill="#000000">
<g id="SVGRepo_bgCarrier" stroke-width="0"/>
<g id="SVGRepo_tracerCarrier" stroke-linecap="round" stroke-linejoin="round"/>
<g id="SVGRepo_iconCarrier"> <g id="copy-4" transform="translate(-3 -2)"> <path id="secondary" fill="#db2777" d="M19,3H16V4a1,1,0,0,1-1,1H13a1,1,0,0,1-1-1V3H9A1,1,0,0,0,8,4V16a1,1,0,0,0,1,1H19a1,1,0,0,0,1-1V4A1,1,0,0,0,19,3Z"/> <path id="primary" d="M16,17v3a1,1,0,0,1-1,1H5a1,1,0,0,1-1-1V8A1,1,0,0,1,5,7H8" fill="none" stroke="#000000" stroke-linecap="round" stroke-linejoin="round" stroke-width="0.3"/> <path id="primary-2" data-name="primary" d="M19,3H9A1,1,0,0,0,8,4V16a1,1,0,0,0,1,1H19a1,1,0,0,0,1-1V4A1,1,0,0,0,19,3ZM12,4a1,1,0,0,0,1,1h2a1,1,0,0,0,1-1V3H12Z" fill="none" stroke="#000000" stroke-linecap="round" stroke-linejoin="round" stroke-width="0.3"/> </g> </g>
</svg>