<!DOCTYPE svg PUBLIC "-//W3C//DTD SVG 1.1//EN" "http://www.w3.org/Graphics/SVG/1.1/DTD/svg11.dtd">
<!-- Uploaded to: SVG Repo, www.svgrepo.com, Transformed by: SVG Repo Mixer Tools -->
<svg height="64px" width="64px" version="1.1" id="Layer_1" xmlns="http://www.w3.org/2000/svg" xmlns:xlink="http://www.w3.org/1999/xlink" viewBox="0 0 512 512" xml:space="preserve" fill="#000000">
<g id="SVGRepo_bgCarrier" stroke-width="0"/>
<g id="SVGRepo_tracerCarrier" stroke-linecap="round" stroke-linejoin="round"/>
<g id="SVGRepo_iconCarrier"> <polygon style="fill:#F7B047;" points="324.883,185.742 324.883,14.694 187.115,14.694 187.115,185.742 121.556,185.742 256,347.433 390.443,185.742 "/> <g> <path style="fill:#D7428B;" d="M256,362.126c-4.367,0-8.506-1.941-11.298-5.298l-134.444-161.69 c-3.643-4.382-4.424-10.475-2.004-15.634c2.42-5.16,7.605-8.455,13.304-8.455h50.865V14.694C172.422,6.58,179.002,0,187.115,0 h137.769c8.114,0,14.694,6.58,14.694,14.694v156.355h50.865c5.698,0,10.882,3.294,13.303,8.455 c2.419,5.159,1.638,11.251-2.004,15.634l-134.443,161.69C264.506,360.185,260.365,362.126,256,362.126z M152.884,200.436 L256,324.45l103.116-124.015h-34.231c-8.114,0-14.694-6.58-14.694-14.694V29.387H201.809v156.355 c0,8.114-6.58,14.694-14.694,14.694L152.884,200.436L152.884,200.436z"/> <path style="fill:#D7428B;" d="M464.648,512H47.352c-8.114,0-14.694-6.58-14.694-14.694V332.739c0-8.114,6.58-14.694,14.694-14.694 h123.734c4.082,0,7.98,1.697,10.759,4.686L256,402.461l15.319-16.47c5.528-5.944,14.824-6.279,20.766-0.752 s6.279,14.824,0.752,20.766l-26.078,28.037c-2.78,2.989-6.678,4.686-10.759,4.686l0,0c-4.082,0-7.98-1.697-10.759-4.686 l-80.554-86.609H62.046v135.18h387.909v-135.18H340.914c-8.114,0-14.694-6.58-14.694-14.694c0-8.114,6.58-14.694,14.694-14.694 h123.734c8.114,0,14.694,6.58,14.694,14.694v164.567C479.341,505.422,472.762,512,464.648,512z"/> <path style="fill:#D7428B;" d="M405.874,407.676h-22.04c-8.114,0-14.694-6.58-14.694-14.694s6.58-14.694,14.694-14.694h22.04 c8.114,0,14.694,6.58,14.694,14.694S413.988,407.676,405.874,407.676z"/> </g> </g>
</svg>